<svg xmlns="http://www.w3.org/2000/svg" fill="none" viewBox="0 0 256 256" id="Calculator-Duotone--Streamline-Phosphor.svg"><desc>Calculator Duotone Streamline Icon: https://streamlinehq.com</desc><g id="calculator-duotone"><path id="Vector" fill="#bc9a64" d="M185.8954 50.8062v57.8953H70.1046V50.8062h115.7908Z" stroke-width="1"></path><path id="Vector_2" fill="#000" d="M70.1046 118.3508h115.7908c2.5594 0 5.014 -1.0168 6.8232 -2.8261s2.826 -4.2637 2.826 -6.8232V50.8062c0 -2.5591 -1.0168 -5.0135 -2.826 -6.8231 -1.8092 -1.8095 -4.2638 -2.8262 -6.8232 -2.8262H70.1046c-2.5591 0 -5.0135 1.0167 -6.8231 2.8262 -1.8095 1.8096 -2.8261 4.264 -2.8261 6.8231v57.8953c0 2.5595 1.0167 5.014 2.8261 6.8232 1.8096 1.8093 4.264 2.8261 6.8231 2.8261Zm9.6492 -57.8954h96.4924v38.5969H79.7538V60.4554ZM214.8431 2.56H41.1569c-5.1183 0 -10.0269 2.0332 -13.646 5.6524 -3.6192 3.6192 -5.6524 8.5277 -5.6524 13.6461v212.283c0 5.1177 2.0332 10.0268 5.6524 13.6465 3.6191 3.6184 8.5277 5.652 13.646 5.652h173.6862c5.1177 0 10.0267 -2.0336 13.6464 -5.652 3.6185 -3.6197 5.652 -8.5288 5.652 -13.6465V21.8585c0 -5.1184 -2.0335 -10.0269 -5.652 -13.6461 -3.6197 -3.6192 -8.5287 -5.6524 -13.6464 -5.6524Zm0 231.5815H41.1569V21.8585h173.6862v212.283ZM94.2277 152.1231c0 2.8622 -0.8489 5.6605 -2.4393 8.0414 -1.5903 2.3798 -3.8509 4.2348 -6.4957 5.3312 -2.6447 1.0952 -5.5549 1.3811 -8.3626 0.8226 -2.8077 -0.5584 -5.3867 -1.9359 -7.4108 -3.961 -2.0242 -2.0239 -3.4027 -4.6027 -3.9612 -7.4106 -0.5584 -2.8079 -0.2718 -5.7172 0.8236 -8.3623 1.0955 -2.6451 2.9507 -4.9054 5.331 -6.4963 2.3802 -1.5897 5.1785 -2.4389 8.0411 -2.4389 3.8388 0 7.5202 1.5246 10.2346 4.2397 2.7143 2.7138 4.2393 6.395 4.2393 10.2342Zm48.2461 0c0 2.8622 -0.8491 5.6605 -2.4388 8.0414 -1.5909 2.3798 -3.8512 4.2348 -6.4963 5.3312 -2.6451 1.0952 -5.5544 1.3811 -8.3623 0.8226 -2.8079 -0.5584 -5.3867 -1.9359 -7.4106 -3.961 -2.0251 -2.0239 -3.4026 -4.6027 -3.961 -7.4106 -0.5585 -2.8079 -0.2726 -5.7172 0.8226 -8.3623 1.0964 -2.6451 2.9514 -4.9054 5.3312 -6.4963 2.3809 -1.5897 5.1792 -2.4388 8.0414 -2.4388 3.8392 0 7.5204 1.5245 10.2342 4.2396 2.7151 2.7138 4.2397 6.395 4.2397 10.2342Zm48.2462 0c0 2.8622 -0.8491 5.6605 -2.4388 8.0414 -1.591 2.3798 -3.8513 4.2348 -6.4964 5.3312 -2.6451 1.0952 -5.5543 1.3811 -8.3622 0.8226 -2.808 -0.5584 -5.3867 -1.9359 -7.4107 -3.961 -2.0251 -2.0239 -3.4025 -4.6027 -3.961 -7.4106 -0.5584 -2.8079 -0.2726 -5.7172 0.8226 -8.3623 1.0964 -2.6451 2.9515 -4.9054 5.3312 -6.4963 2.381 -1.5897 5.1793 -2.4388 8.0415 -2.4388 3.8392 0 7.5203 1.5245 10.2342 4.2396 2.715 2.7138 4.2396 6.395 4.2396 10.2342Zm-96.4923 48.2461c0 2.8622 -0.8489 5.6605 -2.4393 8.0415 -1.5904 2.3797 -3.8509 4.2348 -6.4957 5.3312 -2.6447 1.0952 -5.5549 1.381 -8.3626 0.8226 -2.8077 -0.5585 -5.3867 -1.9359 -7.4108 -3.961 -2.0242 -2.024 -3.4027 -4.6027 -3.9612 -7.4107 -0.5584 -2.8079 -0.2718 -5.7171 0.8236 -8.3622 1.0955 -2.6451 2.9507 -4.9054 5.3309 -6.4964 2.3803 -1.5897 5.1786 -2.4388 8.0412 -2.4388 3.8388 0 7.5202 1.5246 10.2346 4.2396 2.7143 2.7139 4.2393 6.395 4.2393 10.2342Zm48.2461 0c0 2.8622 -0.8491 5.6605 -2.4388 8.0415 -1.5909 2.3797 -3.8513 4.2348 -6.4963 5.3312 -2.6451 1.0952 -5.5544 1.381 -8.3623 0.8226 -2.8079 -0.5585 -5.3867 -1.9359 -7.4106 -3.961 -2.0251 -2.024 -3.4026 -4.6027 -3.961 -7.4107 -0.5585 -2.8079 -0.2726 -5.7171 0.8226 -8.3622 1.0964 -2.6451 2.9514 -4.9054 5.3312 -6.4964 2.3809 -1.5897 5.1792 -2.4388 8.0414 -2.4388 3.8392 0 7.5204 1.5246 10.2342 4.2396 2.7151 2.7139 4.2397 6.3951 4.2397 10.2343Zm48.2462 0c0 2.8622 -0.8491 5.6605 -2.4389 8.0415 -1.5909 2.3797 -3.8512 4.2348 -6.4963 5.3312 -2.6451 1.0952 -5.5543 1.381 -8.3623 0.8226 -2.8079 -0.5585 -5.3866 -1.9359 -7.4106 -3.961 -2.0251 -2.024 -3.4025 -4.6027 -3.961 -7.4107 -0.5584 -2.8079 -0.2726 -5.7171 0.8226 -8.3622 1.0964 -2.6451 2.9515 -4.9054 5.3312 -6.4964 2.381 -1.5897 5.1792 -2.4388 8.0415 -2.4388 3.8391 0 7.5203 1.5246 10.2342 4.2396 2.715 2.7139 4.2396 6.3951 4.2396 10.2343Z" stroke-width="1"></path></g></svg>