<svg xmlns="http://www.w3.org/2000/svg" fill="none" viewBox="0 0 256 256" id="Cash-Register-Duotone--Streamline-Phosphor.svg"><desc>Cash Register Duotone Streamline Icon: https://streamlinehq.com</desc><g id="cash-register-duotone"><path id="Vector" fill="#bc9a64" d="M244.48 177.28H11.52L36.7088 76.5472c0.4845 -1.9384 1.6031 -3.6593 3.1778 -4.889 1.5747 -1.2298 3.5153 -1.8979 5.5134 -1.8982h165.2c1.9981 0.0003 3.939 0.6684 5.5138 1.8982 1.5747 1.2297 2.6924 2.9506 3.1774 4.889L244.48 177.28Z" stroke-width="1"></path><path id="Vector_2" fill="#000" d="M253.1712 175.1072 227.9936 74.3744c-0.9699 -3.8787 -3.2077 -7.3218 -6.3605 -9.7814 -3.1517 -2.4597 -7.0347 -3.7949 -11.0331 -3.793h-73.64V42.88c0 -4.7527 -1.8883 -9.3107 -5.2483 -12.6713 -3.3611 -3.3607 -7.9195 -5.2487 -12.6717 -5.2487h-44.8c-4.7527 0 -9.3107 1.888 -12.6713 5.2487C58.208 33.5693 56.32 38.1273 56.32 42.88V60.8H45.4c-3.9979 -0.0019 -7.8818 1.3333 -11.0336 3.793 -3.1518 2.4596 -5.3905 5.9027 -6.36 9.7814L2.8288 175.1072c-0.1789 0.7101 -0.2691 1.4403 -0.2688 2.1728v35.84c0 4.7522 1.888 9.3106 5.2487 12.6717 3.3606 3.36 7.9186 5.2483 12.6713 5.2483h215.04c4.7522 0 9.3106 -1.8883 12.6717 -5.2483 3.36 -3.3611 5.2483 -7.9195 5.2483 -12.6717v-35.84c0 -0.7325 -0.0896 -1.4627 -0.2688 -2.1728ZM74.24 42.88h44.8V60.8h-44.8V42.88ZM45.4 78.72h165.2l22.4 89.6H23l22.4 -89.6Zm-24.92 134.4v-26.88h215.04v26.88H20.48ZM56.32 105.6c0 -2.3763 0.9441 -4.6554 2.6243 -6.3357 1.6803 -1.6802 3.9594 -2.6243 6.3357 -2.6243H83.2c2.3763 0 4.6554 0.9441 6.3357 2.6243 1.6803 1.6803 2.6243 3.9594 2.6243 6.3357s-0.944 4.6558 -2.6243 6.3358c-1.6803 1.68 -3.9594 2.6242 -6.3357 2.6242H65.28c-2.3763 0 -4.6554 -0.9442 -6.3357 -2.6242 -1.6802 -1.68 -2.6243 -3.9595 -2.6243 -6.3358Zm53.76 0c0 -2.3763 0.9442 -4.6554 2.6242 -6.3357 1.68 -1.6802 3.9592 -2.6243 6.3358 -2.6243h17.92c2.3766 0 4.6558 0.9441 6.3358 2.6243 1.68 1.6803 2.6242 3.9594 2.6242 6.3357s-0.9442 4.6558 -2.6242 6.3358 -3.9592 2.6242 -6.3358 2.6242h-17.92c-2.3766 0 -4.6558 -0.9442 -6.3358 -2.6242s-2.6242 -3.9595 -2.6242 -6.3358Zm53.76 0c0 -2.3763 0.9442 -4.6554 2.6242 -6.3357 1.68 -1.6802 3.9592 -2.6243 6.3358 -2.6243h17.92c2.3766 0 4.6558 0.9441 6.3358 2.6243 1.68 1.6803 2.6242 3.9594 2.6242 6.3357s-0.9442 4.6558 -2.6242 6.3358 -3.9592 2.6242 -6.3358 2.6242H172.8c-2.3766 0 -4.6558 -0.9442 -6.3358 -2.6242s-2.6242 -3.9595 -2.6242 -6.3358ZM56.32 141.44c0 -2.3766 0.9441 -4.6558 2.6243 -6.3358 1.6803 -1.68 3.9594 -2.6242 6.3357 -2.6242H83.2c2.3763 0 4.6554 0.9442 6.3357 2.6242 1.6803 1.68 2.6243 3.9592 2.6243 6.3358s-0.944 4.6558 -2.6243 6.3358c-1.6803 1.68 -3.9594 2.6242 -6.3357 2.6242H65.28c-2.3763 0 -4.6554 -0.9442 -6.3357 -2.6242 -1.6802 -1.68 -2.6243 -3.9592 -2.6243 -6.3358Zm53.76 0c0 -2.3766 0.9442 -4.6558 2.6242 -6.3358s3.9592 -2.6242 6.3358 -2.6242h17.92c2.3766 0 4.6558 0.9442 6.3358 2.6242s2.6242 3.9592 2.6242 6.3358 -0.9442 4.6558 -2.6242 6.3358 -3.9592 2.6242 -6.3358 2.6242h-17.92c-2.3766 0 -4.6558 -0.9442 -6.3358 -2.6242s-2.6242 -3.9592 -2.6242 -6.3358Zm53.76 0c0 -2.3766 0.9442 -4.6558 2.6242 -6.3358s3.9592 -2.6242 6.3358 -2.6242h17.92c2.3766 0 4.6558 0.9442 6.3358 2.6242s2.6242 3.9592 2.6242 6.3358 -0.9442 4.6558 -2.6242 6.3358 -3.9592 2.6242 -6.3358 2.6242H172.8c-2.3766 0 -4.6558 -0.9442 -6.3358 -2.6242s-2.6242 -3.9592 -2.6242 -6.3358Z" stroke-width="1"></path></g></svg>