<svg xmlns="http://www.w3.org/2000/svg" fill="none" viewBox="0 0 256 256" id="Chats-Circle-Duotone--Streamline-Phosphor.svg"><desc>Chats Circle Duotone Streamline Icon: https://streamlinehq.com</desc><g id="chats-circle-duotone"><path id="Vector" fill="#bc9a64" d="M244.0896 223.8966c0.4536 1.5433 0.4828 3.1808 0.0852 4.7398 -0.3988 1.559 -1.2085 2.9826 -2.3464 4.1205 -1.1379 1.1379 -2.5603 1.9476 -4.1194 2.3464 -1.5601 0.3976 -3.1976 0.3684 -4.7409 -0.0852l-31.0575 -9.1391c-10.2591 5.4868 -21.5834 8.69 -33.1966 9.39 -11.6133 0.7011 -23.241 -1.1177 -34.0848 -5.3323 -10.8449 -4.2134 -20.6494 -10.7217 -28.7436 -19.0802 -8.0931 -8.3574 -14.284 -18.3668 -18.1472 -29.3405 1.4672 0.0784 2.9344 0.1232 4.4128 0.1232 12.8888 0.0011 25.5907 -3.0878 37.0404 -9.007s21.3135 -14.4972 28.7648 -25.0151c7.4513 -10.5168 12.2729 -22.6665 14.0604 -35.431 1.7887 -12.7646 0.4906 -25.7724 -3.7844 -37.932 13.5463 0.7356 26.6872 4.8766 38.2075 12.0399 11.5214 7.1633 21.0481 17.1169 27.6997 28.9407 6.6517 11.8227 10.2144 25.1327 10.3555 38.6981 0.1422 13.5653 -3.1416 26.947 -9.5446 38.9063l9.1391 31.0575Z" stroke-width="1"></path><path id="Vector_2" fill="#000" d="M244.5488 193.6903c6.1914 -12.8407 9.2288 -26.9739 8.8614 -41.2247 -0.3684 -14.2509 -4.1305 -28.2082 -10.9759 -40.7119 -6.8454 -12.5047 -16.5759 -23.1954 -28.3829 -31.1842 -11.8059 -7.9887 -25.3489 -13.045 -39.5022 -14.7489 -4.7096 -10.9495 -11.5562 -20.8493 -20.1387 -29.1196 -8.5836 -8.2704 -18.7308 -14.7452 -29.8467 -19.0451 -11.1171 -4.3 -22.9801 -6.3387 -34.8943 -5.9968 -11.9142 0.3419 -23.6407 3.0576 -34.4924 7.9879 -10.8518 4.9305 -20.6106 11.9764 -28.7054 20.7254 -8.0947 8.749 -14.3624 19.0252 -18.436 30.2266 -4.0738 11.2015 -5.8716 23.1032 -5.2882 35.0082 0.5834 11.9044 3.5363 23.5737 8.6856 34.3234l-8.1424 27.6751c-0.9103 3.09 -0.9712 6.3671 -0.1762 9.4886 0.795 3.1214 2.4166 5.9706 4.6942 8.2476 2.2774 2.2781 5.1266 3.8998 8.2478 4.6939 3.1212 0.7952 6.399 0.7347 9.4885 -0.1758l27.6751 -8.1424c8.8864 4.2694 18.4137 7.0504 28.2015 8.232 4.7552 11.1417 11.7205 21.2037 20.4746 29.5768 8.7539 8.3742 19.1149 14.8847 30.4571 19.1407 11.3422 4.256 23.4292 6.1667 35.5308 5.619 12.1026 -0.5488 23.9667 -3.5448 34.8777 -8.8088l27.6751 8.1424c3.0878 0.9094 6.3649 0.9699 9.4841 0.1758 3.1203 -0.7952 5.9685 -2.4158 8.2454 -4.6916 2.277 -2.2758 3.8987 -5.1229 4.695 -8.2421 0.7964 -3.1203 0.7381 -6.3962 -0.1702 -9.4852l-8.1424 -27.6863Zm-190.4775 -30.531c-0.8563 0.0022 -1.708 0.1232 -2.5312 0.3584l-31.0687 9.1615 9.1504 -31.091c0.6508 -2.2456 0.3976 -4.6581 -0.7056 -6.72 -8.1053 -15.158 -10.4935 -32.724 -6.7293 -49.4963C25.9511 68.6 35.617 53.7391 49.4227 43.4984c13.8057 -10.2405 30.8317 -15.1791 47.9745 -13.9152 17.1426 1.2638 33.2605 8.6458 45.4146 20.8004s19.5372 28.2723 20.8006 45.4149c1.2633 17.1424 -3.6747 34.1686 -13.9148 47.9748 -10.2413 13.805 -25.1025 23.4717 -41.8744 27.2349 -16.7715 3.7643 -34.3377 1.3765 -49.4959 -6.7289 -1.3035 -0.7213 -2.7663 -1.1066 -4.256 -1.12Zm172.244 32.1774 9.1952 31.1023 -31.0911 -9.1504c-2.2467 -0.6507 -4.658 -0.3976 -6.72 0.7056 -16.4997 8.8099 -35.7872 10.8281 -53.753 5.6224 -17.9647 -5.2057 -33.1866 -17.2222 -42.4209 -33.4879 12.2684 -1.2801 24.1392 -5.0825 34.8688 -11.1674 10.7295 -6.085 20.086 -14.3214 27.4813 -24.193 7.3964 -9.8717 12.6727 -21.1646 15.4985 -33.172 2.8246 -12.0064 3.1382 -24.4675 0.9206 -36.6014 10.6893 2.5196 20.6561 7.4617 29.1322 14.4445 8.4761 6.9832 15.2342 15.8199 19.7534 25.8293 4.518 10.0094 6.6774 20.9238 6.3089 31.8997 -0.3696 10.976 -3.2547 21.7201 -8.4347 31.4036 -1.1155 2.0742 -1.3686 4.5046 -0.7056 6.7647h-0.0336Z" stroke-width="1"></path></g></svg>