<svg xmlns="http://www.w3.org/2000/svg" fill="none" viewBox="0 0 256 256" id="Currency-Circle-Dollar-Duotone--Streamline-Phosphor.svg"><desc>Currency Circle Dollar Duotone Streamline Icon: https://streamlinehq.com</desc><g id="currency-circle-dollar-duotone"><path id="Vector" fill="#bc9a64" d="M243.7906 127.9998c0 22.9012 -6.7906 45.2886 -19.5143 64.3301 -12.7237 19.0415 -30.8076 33.882 -51.9647 42.6459 -21.1583 8.7639 -44.4406 11.058 -66.9016 6.5892 -22.4608 -4.4676 -43.0927 -15.4954 -59.2863 -31.6892 -16.1936 -16.1938 -27.2216 -36.825 -31.6894 -59.286 -4.4678 -22.4622 -2.1748 -45.7433 6.5891 -66.9011 8.764 -21.158 23.6051 -39.2421 42.6468 -51.9653C82.7119 19.0002 105.0988 12.2092 128 12.2092c30.7099 0 60.1617 12.1994 81.876 33.9142 21.7156 21.715 33.9146 51.1666 33.9146 81.8764Z" stroke-width="1"></path><path id="Vector_2" fill="#000" d="M128 2.56c-24.8093 0 -49.0621 7.3569 -69.6906 21.1405C37.681 37.4839 21.603 57.0749 12.1087 79.996 2.6145 102.9167 0.1304 128.1385 4.9705 152.4714c4.8402 24.3329 16.7871 46.6841 34.3302 64.2276 17.543 17.5435 39.8943 29.4904 64.2277 34.3307 24.3329 4.8403 49.5548 2.3556 72.4753 -7.1392 22.9217 -9.4936 42.512 -25.5716 56.2959 -46.2005 13.7827 -20.6276 21.1402 -44.8809 21.1402 -69.6902 -0.035 -33.2584 -13.2628 -65.1437 -36.7792 -88.6605C193.1431 15.8224 161.2585 2.5951 128 2.56Zm0 231.5812c-20.993 0 -41.5142 -6.225 -58.969 -17.8885 -17.4548 -11.6623 -31.0592 -28.2396 -39.0928 -47.6345 -8.0336 -19.395 -10.1356 -40.7366 -6.0401 -61.3256 4.0955 -20.5894 14.2045 -39.502 29.0486 -54.3461 14.8441 -14.8441 33.7567 -24.9531 54.3461 -29.0486 20.589 -4.0955 41.9307 -1.9935 61.3256 6.0401s35.9723 21.638 47.6346 39.0928c11.6634 17.4548 17.8884 37.9759 17.8884 58.969 -0.0314 28.1407 -11.2245 55.1199 -31.1235 75.0178C183.12 222.9167 156.1408 234.1098 128 234.1412Zm48.2461 -82.0184c0 8.9569 -3.5581 17.5471 -9.8916 23.8806 -6.3336 6.3335 -14.9238 9.8917 -23.8807 9.8917h-4.8246v9.6492c0 2.5595 -1.0168 5.014 -2.826 6.8232s-4.2637 2.826 -6.8232 2.826 -5.0139 -1.0168 -6.8232 -2.826 -2.826 -4.2637 -2.826 -6.8232v-9.6492H99.0524c-2.5595 0 -5.0135 -1.0168 -6.8231 -2.826 -1.8096 -1.8093 -2.8261 -4.2638 -2.8261 -6.8232s1.0165 -5.014 2.8261 -6.8232c1.8096 -1.8093 4.2636 -2.826 6.8231 -2.826h43.4215c3.8391 0 7.5203 -1.5246 10.2342 -4.2397 2.715 -2.7138 4.2396 -6.395 4.2396 -10.2342s-1.5246 -7.5203 -4.2396 -10.2342c-2.7139 -2.715 -6.3951 -4.2396 -10.2342 -4.2396h-28.9477c-8.9569 0 -17.5471 -3.5581 -23.8806 -9.8916 -6.3335 -6.3335 -9.8916 -14.9238 -9.8916 -23.8806s3.5581 -17.5471 9.8916 -23.8806c6.3335 -6.3335 14.9237 -9.8917 23.8806 -9.8917h4.8246v-9.6492c0 -2.5591 1.0168 -5.0135 2.826 -6.8231 1.8093 -1.8095 4.2638 -2.8261 6.8232 -2.8261s5.014 1.0166 6.8232 2.8261c1.8093 1.8096 2.826 4.264 2.826 6.8231v9.6492h19.2985c2.5594 0 5.0139 1.0167 6.8232 2.8261 1.8092 1.8096 2.826 4.264 2.826 6.8231s-1.0168 5.0135 -2.826 6.8231c-1.8093 1.8095 -4.2638 2.8261 -6.8232 2.8261h-43.4215c-3.8392 0 -7.5204 1.525 -10.2342 4.2393 -2.715 2.7142 -4.2396 6.3954 -4.2396 10.2346 0 3.8391 1.5246 7.5203 4.2396 10.2342 2.7138 2.715 6.395 4.2396 10.2342 4.2396h28.9477c8.9568 0 17.5471 3.5581 23.8806 9.8916 6.3335 6.3335 9.8916 14.9237 9.8916 23.8806Z" stroke-width="1"></path></g></svg>