<svg xmlns="http://www.w3.org/2000/svg" fill="none" viewBox="0 0 256 256" id="Currency-Dollar-Duotone--Streamline-Phosphor.svg"><desc>Currency Dollar Duotone Streamline Icon: https://streamlinehq.com</desc><g id="currency-dollar-duotone"><path id="Vector" fill="#bc9a64" d="M192 168c0 5.253 -1.035 10.454 -3.045 15.307s-4.956 9.263 -8.671 12.977c-3.714 3.715 -8.124 6.661 -12.977 8.671S157.253 208 152 208h-24v-80h24c5.253 0 10.454 1.035 15.307 3.045s9.263 4.956 12.977 8.671c3.715 3.714 6.661 8.124 8.671 12.977S192 162.747 192 168ZM112 48c-10.609 0 -20.7828 4.2143 -28.2843 11.7157C76.2143 67.2172 72 77.3913 72 88c0 10.6087 4.2143 20.783 11.7157 28.284C91.2172 123.786 101.391 128 112 128h16V48h-16Z" stroke-width="1"></path><path id="Vector_2" fill="#000" d="M152 120h-16V56h8c8.487 0 16.626 3.3714 22.627 9.3726C172.629 71.3737 176 79.5131 176 88c0 2.1217 0.843 4.1566 2.343 5.6569C179.843 95.1571 181.878 96 184 96s4.157 -0.8429 5.657 -2.3431C191.157 92.1566 192 90.1217 192 88c-0.013 -12.7263 -5.075 -24.9276 -14.073 -33.9265C168.928 45.0746 156.726 40.0132 144 40h-8V24c0 -2.1217 -0.843 -4.1566 -2.343 -5.6569C132.157 16.8429 130.122 16 128 16s-4.157 0.8429 -5.657 2.3431C120.843 19.8434 120 21.8783 120 24v16h-8c-12.7304 0 -24.9394 5.0571 -33.9411 14.0589C69.0571 63.0606 64 75.2696 64 88c0 12.73 5.0571 24.939 14.0589 33.941C87.0606 130.943 99.2696 136 112 136h8v64h-16c-8.4869 0 -16.6263 -3.371 -22.6274 -9.373C75.3714 184.626 72 176.487 72 168c0 -2.122 -0.8429 -4.157 -2.3431 -5.657C68.1566 160.843 66.1217 160 64 160s-4.1566 0.843 -5.6569 2.343C56.8429 163.843 56 165.878 56 168c0.0132 12.726 5.0746 24.928 14.0735 33.927C79.0724 210.925 91.2737 215.987 104 216h16v16c0 2.122 0.843 4.157 2.343 5.657S125.878 240 128 240s4.157 -0.843 5.657 -2.343S136 234.122 136 232v-16h16c12.73 0 24.939 -5.057 33.941 -14.059C194.943 192.939 200 180.73 200 168c0 -12.73 -5.057 -24.939 -14.059 -33.941C176.939 125.057 164.73 120 152 120Zm-40 0c-8.487 0 -16.6263 -3.371 -22.6274 -9.373C83.3714 104.626 80 96.4869 80 88c0 -8.4869 3.3714 -16.6263 9.3726 -22.6274C95.3737 59.3714 103.513 56 112 56h8v64h-8Zm40 80h-16v-64h16c8.487 0 16.626 3.371 22.627 9.373C180.629 151.374 184 159.513 184 168c0 8.487 -3.371 16.626 -9.373 22.627C168.626 196.629 160.487 200 152 200Z" stroke-width="1"></path></g></svg>