<svg xmlns="http://www.w3.org/2000/svg" fill="none" viewBox="0 0 256 256" id="Envelope-Duotone--Streamline-Phosphor.svg"><desc>Envelope Duotone Streamline Icon: https://streamlinehq.com</desc><g id="envelope-duotone"><path id="Vector" fill="#bc9a64" d="M243.7908 41.1569 128 147.2985 12.2092 41.1569h231.5816Z" stroke-width="1"></path><path id="Vector_2" fill="#000" d="M243.7908 31.5077H12.2092c-2.5591 0 -5.0135 1.0167 -6.8231 2.8261 -1.8094 1.8096 -2.8261 4.264 -2.8261 6.8231v164.0369c0 5.1178 2.0332 10.0268 5.6524 13.6465 3.6192 3.6184 8.5277 5.652 13.6461 5.652h212.283c5.1177 0 10.0268 -2.0336 13.6465 -5.652 3.6184 -3.6197 5.652 -8.5287 5.652 -13.6465V41.1569c0 -2.5591 -1.0168 -5.0135 -2.826 -6.8231 -1.8093 -1.8094 -4.2638 -2.8261 -6.8232 -2.8261ZM128 134.2117 37.0198 50.8062h181.9604L128 134.2117ZM92.6718 128l-70.8133 64.9031V63.0969L92.6718 128Zm14.2808 13.0868 14.4739 13.328c1.7802 1.6343 4.1081 2.5413 6.5253 2.5413s4.745 -0.907 6.5252 -2.5413l14.4739 -13.328 69.9569 64.107H37.0198l69.9328 -64.107ZM163.3282 128l70.8133 -64.9152v129.8304L163.3282 128Z" stroke-width="1"></path></g></svg>