<svg xmlns="http://www.w3.org/2000/svg" fill="none" viewBox="0 0 256 256" id="Eyedropper-Sample-Duotone--Streamline-Phosphor.svg"><desc>Eyedropper Sample Duotone Streamline Icon: https://streamlinehq.com</desc><g id="eyedropper-sample-duotone"><path id="Vector" fill="#bc9a64" d="M29.1268 169.8042h116.2683l-50.4526 50.4656c-5.3697 5.3876 -12.1077 9.2088 -19.488 11.0495 -7.3803 1.842 -15.1232 1.6355 -22.3947 -0.5984l-26.1277 11.4178c-1.925 0.8427 -4.0591 1.0843 -6.124 0.695 -2.0647 -0.3893 -3.9642 -1.3913 -5.4506 -2.8766 -1.0666 -1.066 -1.7869 -2.4299 -2.0666 -3.9126 -0.2795 -1.4815 -0.1058 -3.0139 0.499 -4.396l12.0056 -27.5125c-1.9133 -5.6305 -2.6058 -11.6046 -2.0314 -17.5252 0.5744 -5.9192 2.4024 -11.649 5.3627 -16.8066ZM231.5251 22.8488c-14.4616 -13.704 -37.4279 -12.8417 -51.5238 1.3064l-32.6596 32.7903 -6.3883 -6.3752c-1.9413 -1.9414 -4.2457 -3.4815 -6.7814 -4.5322 -2.537 -1.0507 -5.2556 -1.5916 -8.0003 -1.5916s-5.4633 0.5409 -8.0003 1.5916c-2.5357 1.0507 -4.8402 2.5908 -6.7815 4.5322L99.6324 62.3278c-1.9582 1.9599 -3.0582 4.617 -3.0582 7.3876s1.1 5.4279 3.0582 7.3876l79.3369 79.1931c1.9595 1.9583 4.6167 3.0583 7.3876 3.0583 2.7708 0 5.428 -1.1 7.3876 -3.0583l11.7574 -11.7574c1.9413 -1.9413 3.4816 -4.2458 4.5319 -6.7815 1.0516 -2.537 1.5925 -5.2556 1.5925 -8.0003s-0.5409 -5.4633 -1.5925 -8.0003c-1.0503 -2.5357 -2.5906 -4.8402 -4.5319 -6.7815l-6.3751 -6.3882 33.143 -33.2867c3.458 -3.4584 6.187 -7.5751 8.0264 -12.1068 1.8394 -4.5316 2.7513 -9.386 2.682 -14.2762 -0.0692 -4.8902 -1.1182 -9.7167 -3.0857 -14.1944 -1.9674 -4.4775 -4.8127 -8.5151 -8.3674 -11.874Z" stroke-width="1"></path><path id="Vector_2" fill="#000" d="M253.4332 48.7022c-0.0705 -6.2897 -1.4109 -12.5004 -3.9374 -18.2604 -2.5279 -5.76 -6.1923 -10.9506 -10.7725 -15.2615 -18.2894 -17.3488 -47.9705 -16.6956 -66.1292 1.4763l-25.2394 25.383c-5.961 -5.4327 -13.7863 -8.3595 -21.848 -8.1722 -8.063 0.1874 -15.7432 3.4745 -21.4456 9.1782L92.3036 54.803c-1.9436 1.9413 -3.4853 4.2466 -4.5372 6.7841 -1.0519 2.5374 -1.5933 5.2574 -1.5933 8.0042 0 2.7469 0.5414 5.4668 1.5933 8.0044 1.0519 2.5374 2.5936 4.8426 4.5372 6.7839l2.6128 2.6911 -66.6258 66.6257c-6.4132 6.3634 -11.0552 14.2893 -13.4677 22.995 -2.4125 8.7071 -2.512 17.891 -0.2885 26.6477L4.0833 227.3896c-1.4602 3.3026 -1.8836 6.9696 -1.2141 10.5177 0.6694 3.5482 2.4003 6.8089 4.9634 9.3524 2.959 2.9877 6.7548 5.0061 10.8858 5.7899 4.1311 0.7839 8.4027 0.2953 12.2503 -1.4004l22.9009 -9.9939c8.5971 1.9426 17.5462 1.6722 26.0108 -0.7838s16.1686 -7.0179 22.3909 -13.2598l66.6257 -66.6257 2.6912 2.6912c3.9191 3.9165 9.2335 6.1178 14.7752 6.1178 5.5417 0 10.856 -2.2013 14.7752 -6.1178l11.7575 -11.7575c5.7128 -5.7089 9.0036 -13.4035 9.1826 -21.4783 0.1802 -8.0761 -2.7631 -15.9091 -8.2159 -21.8676l25.8011 -25.9578c4.46 -4.4344 7.9794 -9.7241 10.3453 -15.5518 2.3658 -5.8276 3.5311 -12.0732 3.424 -18.362ZM87.5221 212.9149c-4.0218 4.0302 -9.0652 6.8886 -14.5889 8.2707 -5.5237 1.3809 -11.3192 1.2306 -16.7643 -0.4324 -2.3876 -0.7355 -4.9598 -0.5918 -7.2505 0.405l-23.6455 10.3204 9.9938 -23.2536c1.0369 -2.3763 1.1533 -5.0544 0.3266 -7.5117 -2.2542 -6.6535 -2.2082 -13.8726 0.1306 -20.4972h84.458l-32.6598 32.6988Zm53.562 -53.5618H52.3412l57.4811 -57.481 44.3387 44.4171 -13.0769 13.0639Zm83.8438 -91.447 -33.143 33.3389c-1.9583 1.9596 -3.0583 4.6168 -3.0583 7.3876 0 2.7709 1.1 5.4281 3.0583 7.3877l6.3882 6.3751c0.972 0.9707 1.7427 2.1229 2.2679 3.3914 0.5265 1.2698 0.7969 2.6297 0.7969 4.0028 0 1.373 -0.2704 2.7329 -0.7969 4.0027 -0.5252 1.2685 -1.2959 2.4208 -2.2679 3.3914l-11.7574 11.7575 -79.2977 -79.3891 11.7575 -11.7574c1.9596 -1.9584 4.6168 -3.0587 7.3876 -3.0587 2.7709 0 5.428 1.1003 7.3876 3.0587l6.3883 6.3882c1.9582 1.9563 4.6128 3.0556 7.381 3.0569 1.3744 -0.0023 2.7356 -0.2759 4.0041 -0.8048 1.2685 -0.5291 2.4207 -1.3033 3.3901 -2.2782l32.5812 -32.7773c10.2029 -10.2159 26.7809 -10.6862 36.9577 -1.0581 2.5422 2.4011 4.5763 5.288 5.9819 8.4896 1.4057 3.2016 2.1543 6.6529 2.2026 10.1492 0.047 3.4964 -0.6075 6.9667 -1.9256 10.2054 -1.3195 3.2386 -3.2738 6.1798 -5.7494 8.649l0.0653 0.0915Z" stroke-width="1"></path></g></svg>