<svg xmlns="http://www.w3.org/2000/svg" fill="none" viewBox="0 0 256 256" id="Globe-Simple-Duotone--Streamline-Phosphor.svg"><desc>Globe Simple Duotone Streamline Icon: https://streamlinehq.com</desc><g id="globe-simple-duotone"><path id="Vector" fill="#bc9a64" d="M243.7906 127.9998c0 22.9012 -6.7907 45.2886 -19.5144 64.3301 -12.7224 19.0415 -30.8075 33.882 -51.9646 42.6459 -21.1583 8.7639 -44.4395 11.058 -66.9016 6.5892 -22.4607 -4.4676 -43.0927 -15.4954 -59.2862 -31.6892 -16.1936 -16.1938 -27.2217 -36.825 -31.6894 -59.286 -4.4678 -22.4622 -2.1748 -45.7433 6.5891 -66.9011 8.7639 -21.158 23.6051 -39.2421 42.6468 -51.9653C82.7119 19.0002 105.0988 12.2092 128 12.2092c30.7098 0 60.1616 12.1994 81.876 33.9142 21.7156 21.715 33.9146 51.1666 33.9146 81.8764Z" stroke-width="1"></path><path id="Vector_2" fill="#000" d="M128 2.56c-24.8093 0 -49.062 7.3569 -69.6906 21.1405C37.6809 37.4839 21.603 57.0749 12.1088 79.996 2.6146 102.9167 0.1304 128.1385 4.9706 152.4714c4.84 24.3329 16.7871 46.6841 34.3301 64.2276 17.5431 17.5435 39.8943 29.4904 64.2277 34.3307 24.3329 4.8403 49.5547 2.3556 72.4752 -7.1392 22.9217 -9.4936 42.5121 -25.5716 56.296 -46.2005 13.7839 -20.6276 21.1402 -44.8809 21.1402 -69.6902 -0.0386 -33.2572 -13.2665 -65.1408 -36.7828 -88.657C193.1406 15.8266 161.2572 2.5984 128 2.56Zm105.683 115.7906h-48.041c-2.159 -44.0366 -19.1175 -75.1795 -33.0244 -93.5974 21.5937 5.1854 41.0224 16.9991 55.5625 33.7846 14.5402 16.7852 23.4621 37.7004 25.515 59.8128h-0.0121ZM89.6806 137.649h76.6388c-2.7862 50.188 -26.8127 80.9449 -38.3194 92.8737 -11.5188 -11.9409 -35.5332 -42.6978 -38.3195 -92.8737Zm0 -19.2984C92.4668 68.1626 116.4933 37.4057 128 25.4769c11.5188 11.9771 35.5332 42.734 38.3195 92.8737H89.6806Zm13.7018 -93.5974C89.4755 43.1711 72.517 74.314 70.358 118.3506H22.3049C24.3578 96.2382 33.2798 75.323 47.82 58.5378c14.54 -16.7855 33.9691 -28.5992 55.5624 -33.7846ZM22.3049 137.649H70.358c2.1952 44.0366 19.1175 75.1795 33.0244 93.5974 -21.5933 -5.1852 -41.0224 -16.9995 -55.5624 -33.7843 -14.5402 -16.786 -23.4622 -37.7007 -25.5151 -59.8131Zm130.2644 93.5974c13.9069 -18.4179 30.8292 -49.5608 33.0244 -93.5974h48.0531c-2.0492 22.1064 -10.9651 43.0162 -25.4956 59.801 -14.5305 16.7848 -33.9496 28.6027 -55.5336 33.7964h-0.0483Z" stroke-width="1"></path></g></svg>