<svg xmlns="http://www.w3.org/2000/svg" fill="none" viewBox="0 0 256 256" id="Hand-Heart-Duotone--Streamline-Phosphor.svg"><desc>Hand Heart Duotone Streamline Icon: https://streamlinehq.com</desc><g id="hand-heart-duotone"><path id="Vector" fill="#bc9a64" d="M19.2823 157.2644H52.7268V215.7923H19.2823C17.0648 215.7923 14.938 214.9113 13.37 213.3436C11.802 211.7759 10.9211 209.649 10.9211 207.4312V165.6256C10.9211 163.4078 11.802 161.2809 13.37 159.7132C14.938 158.1455 17.0648 157.2644 19.2823 157.2644ZM203.7914 40.2086C195.6519 40.1131 187.6691 42.4493 180.8663 46.918C174.0624 51.3867 168.7479 57.7845 165.602 65.292C162.4561 57.7845 157.1416 51.3867 150.3377 46.918C143.5349 42.4493 135.5521 40.1131 127.4125 40.2086C104.6389 40.2086 86.1713 59.3452 86.1713 82.0143C86.1713 97.2315 93.4873 110.9751 103.6565 123.8199H148.8797C154.4232 123.8199 159.7398 126.022 163.6601 129.9424C167.5804 133.8627 169.7826 139.1793 169.7826 144.7227S167.5804 155.5828 163.6601 159.5031C159.7398 163.4234 154.4232 165.6256 148.8797 165.6256H153.0603L192.5457 156.5537C215.5806 139.5702 245.0327 112.5638 245.0327 82.0143C245.0327 59.3452 226.5651 40.2086 203.7915 40.2086Z" stroke-width="1"></path><path id="Vector_2" fill="#000" d="M243.2873 145.8306C240.5532 143.7236 237.4188 142.1945 234.0755 141.3375C230.731 140.4805 227.2475 140.3133 223.8373 140.8453C243.465 121.0294 253.3938 101.3285 253.3938 82.0143C253.3938 54.3494 231.1428 31.8475 203.7914 31.8475C196.534 31.8019 189.3549 33.3455 182.7569 36.3697C176.16 39.394 170.3041 43.8257 165.602 49.3536C160.8999 43.8257 155.044 39.394 148.4471 36.3697C141.8491 33.3455 134.67 31.8019 127.4125 31.8475C100.0612 31.8475 77.8101 54.3494 77.8101 82.0143C77.8101 93.5108 81.1964 104.6834 88.3243 116.5039C82.4865 117.9828 77.1589 121.0169 72.9084 125.2831L49.2673 148.9033H19.2823C14.8472 148.9033 10.5939 150.6654 7.4578 153.8008C4.3218 156.9373 2.56 161.191 2.56 165.6256V207.4312C2.56 211.8657 4.3218 216.1195 7.4578 219.2559C10.5939 222.3913 14.8472 224.1535 19.2823 224.1535H127.9769C128.6604 224.1535 129.3419 224.0698 130.0045 223.9026L196.8935 207.1804C197.3199 207.079 197.7359 206.9389 198.1372 206.7623L238.7619 189.4757L239.2217 189.2666C243.1264 187.3154 246.4698 184.4026 248.9374 180.8031C251.4039 177.2026 252.9152 173.0335 253.3259 168.6878C253.7366 164.3432 253.0343 159.9651 251.2858 155.9653C249.5362 151.9666 246.799 148.479 243.3291 145.8306H243.2873ZM127.4125 48.5698C133.8882 48.475 140.2458 50.3139 145.6701 53.8512C151.0954 57.3886 155.3429 62.4637 157.868 68.4275C158.4982 69.961 159.5694 71.2726 160.9469 72.1957C162.3234 73.1188 163.9444 73.6117 165.602 73.6117C167.2596 73.6117 168.8806 73.1188 170.2571 72.1957C171.6346 71.2726 172.7058 69.961 173.3361 68.4275C175.8611 62.4637 180.1086 57.3886 185.5339 53.8512C190.9582 50.3139 197.3158 48.475 203.7915 48.5698C221.6111 48.5698 236.6716 63.8811 236.6716 82.0143C236.6716 102.405 220.1688 125.4712 188.9504 148.7988L177.3598 151.4639C178.3768 147.1663 178.4081 142.6941 177.4518 138.3829C176.4945 134.0707 174.5745 130.0322 171.8342 126.5676C169.0949 123.104 165.6062 120.3051 161.6305 118.381C157.6558 116.458 153.2965 115.4588 148.8797 115.4588H107.7848C98.7652 103.2934 94.5324 92.5911 94.5324 82.0143C94.5324 63.8811 109.5929 48.5698 127.4125 48.5698ZM19.2823 165.6256H44.3656V207.4312H19.2823V165.6256ZM231.8953 174.2062L192.1799 191.1166L126.9318 207.4312H61.0879V160.7238L84.7394 137.0828C86.2867 135.5234 88.1284 134.287 90.1576 133.4457C92.1869 132.6033 94.3632 132.1737 96.56 132.181H148.8797C152.2064 132.181 155.3962 133.5021 157.7478 135.8547C160.1004 138.2063 161.4214 141.3961 161.4214 144.7227S160.1004 151.2392 157.7478 153.5908C155.3962 155.9434 152.2064 157.2644 148.8797 157.2644H119.6158C117.398 157.2644 115.2711 158.1455 113.7034 159.7132S111.2547 163.4078 111.2547 165.6256S112.1357 169.9702 113.7034 171.5379S117.398 173.9867 119.6158 173.9867H153.0603C153.6895 173.9846 154.3166 173.9146 154.9311 173.7777L224.9556 157.672L225.2795 157.5884C227.4169 156.9948 229.6984 157.2132 231.6852 158.2009C233.672 159.1885 235.223 160.8754 236.0403 162.9385C236.8576 165.0006 236.8827 167.2926 236.1114 169.3724C235.3411 171.4533 233.8278 173.1746 231.8639 174.2062H231.8953Z" stroke-width="1"></path></g></svg>