<svg xmlns="http://www.w3.org/2000/svg" fill="none" viewBox="0 0 256 256" id="Hand-Soap-Duotone--Streamline-Phosphor.svg"><desc>Hand Soap Duotone Streamline Icon: https://streamlinehq.com</desc><g id="hand-soap-duotone"><path id="Vector" fill="#bc9a64" d="M220.9185 141.9378v92.9185c0 2.4647 -0.9791 4.8283 -2.7213 6.5705s-4.1059 2.7213 -6.5705 2.7213H44.3733c-2.4643 0 -4.8278 -0.9791 -6.5703 -2.7213 -1.7425 -1.7422 -2.7215 -4.1058 -2.7215 -6.5705v-92.9185c0 -9.8575 3.9158 -19.3108 10.8861 -26.2809 6.9702 -6.9712 16.4239 -10.8865 26.2813 -10.8865h111.5022c9.8575 0 19.3108 3.9153 26.2809 10.8865 6.9712 6.9701 10.8865 16.4234 10.8865 26.2809Z" stroke-width="1"></path><path id="Vector_2" fill="#000" d="M193.043 96.4077v-10.221c0 -9.8574 -3.9154 -19.3112 -10.8866 -26.2813 -6.97 -6.9703 -16.4233 -10.8861 -26.2808 -10.8861h-18.5837V21.1437h37.1674c2.4646 0 4.8283 0.979 6.5705 2.7215 1.7422 1.7425 2.7213 4.106 2.7213 6.5704s0.9791 4.8278 2.7214 6.5703c1.7422 1.7425 4.1058 2.7215 6.5705 2.7215s4.8282 -0.979 6.5705 -2.7215c1.7422 -1.7425 2.7213 -4.106 2.7213 -6.5703 0 -7.3931 -2.9374 -14.4834 -8.164 -19.7111 -5.2279 -5.2276 -12.3187 -8.1645 -19.7115 -8.1645h-74.3348c-2.4647 0 -4.8279 0.979 -6.5704 2.7215 -1.7425 1.7425 -2.7215 4.106 -2.7215 6.5704s0.979 4.8278 2.7215 6.5703c1.7425 1.7425 4.1057 2.7215 6.5703 2.7215h18.5837v27.8756h-18.5837c-9.8573 0 -19.3111 3.9158 -26.2813 10.8861 -6.9702 6.9701 -10.8861 16.4239 -10.8861 26.2813v10.221c-10.4869 2.1562 -19.9096 7.8621 -26.68 16.1562 -6.7704 8.293 -10.4742 18.6673 -10.4874 29.3739v92.9185c0 4.9282 1.958 9.6554 5.4431 13.141 3.4851 3.4844 8.2119 5.4427 13.1406 5.4427h167.2534c4.9281 0 9.6554 -1.9583 13.141 -5.4427 3.4844 -3.4856 5.4427 -8.2128 5.4427 -13.141v-92.9185c-0.0128 -10.7066 -3.7168 -21.0809 -10.4871 -29.3739 -6.7702 -8.2941 -16.1933 -14 -26.6803 -16.1562ZM100.1244 67.603h55.7512c4.9281 0 9.6554 1.9579 13.141 5.443 3.4844 3.4852 5.4427 8.2119 5.4427 13.1407v9.2918H81.5407v-9.2918c0 -4.9288 1.958 -9.6555 5.4431 -13.1407 3.4851 -3.4851 8.2119 -5.443 13.1406 -5.443Zm111.5023 167.2533H44.3733v-92.9185c0 -7.3929 2.937 -14.4837 8.1646 -19.7115 5.2277 -5.2267 12.3179 -8.1641 19.711 -8.1641h111.5022c7.3928 0 14.4837 2.9374 19.7115 8.1641 5.2267 5.2278 8.1641 12.3186 8.1641 19.7115v92.9185Z" stroke-width="1"></path></g></svg>