<svg xmlns="http://www.w3.org/2000/svg" fill="none" viewBox="0 0 256 256" id="Hand-Coins-Duotone--Streamline-Phosphor.svg"><desc>Hand Coins Duotone Streamline Icon: https://streamlinehq.com</desc><g id="hand-coins-duotone"><path id="Vector" fill="#bc9a64" d="M19.2823 161.4445h33.4445v58.5279H19.2823c-2.2175 0 -4.3443 -0.881 -5.9123 -2.4488 -1.568 -1.5677 -2.4489 -3.6945 -2.4489 -5.9123v-41.8057c0 -2.2178 0.8809 -4.3446 2.4489 -5.9123 1.568 -1.5677 3.6948 -2.4488 5.9123 -2.4488ZM215.7688 61.111c-4.3384 0.0027 -8.6225 0.9701 -12.5417 2.8323 -0.2843 -6.2764 -2.5815 -12.2946 -6.551 -17.1644 -3.9705 -4.87 -9.4021 -8.3329 -15.4921 -9.8768 -6.09 -1.5439 -12.5155 -1.0868 -18.3255 1.3038 -5.8099 2.3906 -10.697 6.5877 -13.9369 11.9706 -3.241 5.3828 -4.6624 11.6657 -4.0552 17.9191 0.6062 6.2535 3.2096 12.1455 7.4247 16.8049 4.215 4.6593 9.818 7.8384 15.9792 9.0671 6.1611 1.2287 12.5552 0.4418 18.2345 -2.2444 0.2644 5.723 2.2021 11.2427 5.5738 15.8746 3.3716 4.6321 8.0287 8.172 13.3945 10.1818 5.3647 2.0098 11.2018 2.3996 16.787 1.1235 5.5842 -1.2771 10.672 -4.1649 14.631 -8.3068 3.959 -4.1409 6.6147 -9.3532 7.6389 -14.99 1.0242 -5.6369 0.371 -11.4504 -1.8781 -16.7195 -2.2481 -5.2692 -5.9949 -9.7624 -10.7733 -12.9223 -4.7795 -3.1599 -10.3804 -4.8475 -16.1098 -4.8535Z" stroke-width="1"></path><path id="Vector_2" fill="#000" d="M243.2873 150.0107c-3.1114 -2.3934 -6.7328 -4.0384 -10.5831 -4.8045 -3.8492 -0.7672 -7.825 -0.6355 -11.6157 0.3835l-43.7287 10.0543c1.0169 -4.2976 1.0483 -8.7698 0.092 -13.081 -0.9574 -4.3122 -2.8773 -8.3507 -5.6176 -11.8153 -2.7393 -3.4636 -6.228 -6.2625 -10.2037 -8.1866 -3.9747 -1.9231 -8.334 -2.9222 -12.7508 -2.9222H96.56c-4.3938 -0.0115 -8.7462 0.8486 -12.8058 2.5292 -4.0596 1.6817 -7.7458 4.1503 -10.8458 7.2638l-23.6411 23.6515h-29.985c-4.4351 0 -8.6884 1.7621 -11.8245 4.8975 -3.136 3.1365 -4.8978 7.3902 -4.8978 11.8247v41.8057c0 4.4345 1.7618 8.6882 4.8978 11.8247 3.1361 3.1354 7.3894 4.8975 11.8245 4.8975h108.6946c0.6835 0 1.365 -0.0836 2.0276 -0.2508l66.889 -16.7223c0.4264 -0.1013 0.8424 -0.2414 1.2437 -0.418l40.6247 -17.2866 0.4598 -0.2091c3.9047 -1.9513 7.2481 -4.8641 9.7157 -8.4635 2.4665 -3.6005 3.9778 -7.7696 4.3885 -12.1153 0.4107 -4.3446 -0.2916 -8.7238 -2.0401 -12.7225 -1.7496 -3.9987 -4.4868 -7.4863 -7.9567 -10.1347h-0.0418Zm-224.005 19.7949h25.0833v41.8057H19.2823v-41.8057Zm212.613 8.5807 -39.7154 16.9103 -65.2481 16.3147H61.0879v-46.7074l23.6515 -23.6411c1.5473 -1.5593 3.389 -2.7957 5.4182 -3.6371 2.0293 -0.8423 4.2056 -1.2719 6.4024 -1.2646h52.3197c3.3267 0 6.5165 1.3211 8.8681 3.6737 2.3526 2.3516 3.6736 5.5413 3.6736 8.868s-1.321 6.5165 -3.6736 8.868c-2.3516 2.3526 -5.5414 3.6737 -8.8681 3.6737h-29.2639c-2.2178 0 -4.3447 0.8811 -5.9124 2.4488s-2.4487 3.6946 -2.4487 5.9123 0.881 4.3447 2.4487 5.9124 3.6946 2.4488 5.9124 2.4488h33.4445c0.6292 -0.0021 1.2563 -0.0721 1.8708 -0.2091l70.0245 -16.1056 0.3239 -0.0836c2.1374 -0.5936 4.4189 -0.3752 6.4057 0.6125 1.9868 0.9876 3.5378 2.6745 4.3551 4.7376 0.8173 2.062 0.8424 4.354 0.0711 6.4339 -0.7703 2.0808 -2.2836 3.8022 -4.2475 4.8337h0.0314Zm-57.9322 -75.4697c2.0663 0.0024 4.1283 -0.1654 6.1663 -0.5017 2.2931 6.8091 6.4872 12.8208 12.0871 17.3212 5.6009 4.5014 12.3724 7.3055 19.5159 8.0799 7.1436 0.7745 14.3592 -0.5131 20.7942 -3.7092 6.4349 -3.1971 11.8195 -8.1688 15.5182 -14.3288 3.6987 -6.16 5.556 -13.2503 5.3532 -20.4326 -0.2038 -7.1822 -2.4592 -14.1561 -6.4997 -20.097 -4.0416 -5.941 -9.6989 -10.6006 -16.3042 -13.4279 -6.6064 -2.8275 -13.8826 -3.7044 -20.9708 -2.5272 -2.2073 -6.5609 -6.182 -12.3856 -11.4861 -16.8332 -5.3051 -4.4476 -11.7338 -7.3457 -18.5784 -8.3752 -6.8457 -1.0295 -13.8429 -0.1506 -20.2203 2.54 -6.3785 2.6905 -11.8906 7.0886 -15.9301 12.71 -4.0395 5.6213 -6.4495 12.2482 -6.9658 19.1513 -0.5163 6.903 0.8821 13.8146 4.0405 19.9742 3.1584 6.1596 7.9556 11.3285 13.8627 14.9375 5.9072 3.6092 12.6954 5.5188 19.6173 5.5187Zm62.7085 -12.5417c0 4.1342 -1.226 8.1755 -3.5232 11.613 -2.2962 3.4375 -5.5612 6.1168 -9.3801 7.6991 -3.82 1.5813 -8.0225 1.9952 -12.0777 1.1894 -4.0541 -0.8068 -7.779 -2.7978 -10.7022 -5.7209 -2.9233 -2.9233 -4.9143 -6.6479 -5.7211 -10.7026 -0.8058 -4.0548 -0.392 -8.2576 1.1893 -12.0772 1.5824 -3.8194 4.2621 -7.084 7.6996 -9.3808 3.4375 -2.2968 7.478 -3.5228 11.6126 -3.5228 5.5434 0 10.86 2.2023 14.7803 6.1223 3.9204 3.92 6.1225 9.2368 6.1225 14.7805Zm-62.7085 -45.9862c4.56 0.0023 8.9945 1.4957 12.6264 4.2525 3.6329 2.7568 6.2635 6.6258 7.4926 11.017 -4.282 3.0132 -7.8887 6.8869 -10.5883 11.3735 -2.6996 4.4865 -4.4325 9.4871 -5.0888 14.6819 -1.4601 0.3152 -2.9484 0.4764 -4.4419 0.4808 -5.5434 0 -10.86 -2.2023 -14.7803 -6.1223 -3.9204 -3.9201 -6.1225 -9.2368 -6.1225 -14.7806 0 -5.5437 2.2021 -10.8604 6.1224 -14.7804 3.9204 -3.9201 9.237 -6.1224 14.7804 -6.1224Z" stroke-width="1"></path></g></svg>