<svg xmlns="http://www.w3.org/2000/svg" fill="none" viewBox="0 0 256 256" id="Heartbeat-Duotone--Streamline-Phosphor.svg"><desc>Heartbeat Duotone Streamline Icon: https://streamlinehq.com</desc><g id="heartbeat-duotone"><path id="Vector" fill="#bc9a64" d="M244.48 89.9228C244.48 163.8428 128 226.5628 128 226.5628S11.52 163.8428 11.52 89.9228C11.52 73.8825 17.892 58.4992 29.2341 47.1569C40.5764 35.8148 55.9597 29.4428 72 29.4428C97.3008 29.4428 118.9728 43.23 128 65.2828C137.0272 43.23 158.6992 29.4428 184 29.4428C200.0406 29.4428 215.4238 35.8148 226.7661 47.1569C238.1083 58.4992 244.48 73.8825 244.48 89.9228Z" stroke-width="1"></path><path id="Vector_2" fill="#000" d="M65.28 136.9628H20.48C18.1037 136.9628 15.8246 136.0186 14.1443 134.3386C12.4641 132.6586 11.52 130.3794 11.52 128.0028S12.4641 123.347 14.1443 121.667C15.8246 119.987 18.1037 119.0428 20.48 119.0428H60.4864L75.7408 96.15C76.5587 94.9214 77.6677 93.9134 78.969 93.2156C80.2703 92.519 81.7237 92.1538 83.2 92.1538C84.6763 92.1538 86.1297 92.519 87.431 93.2156C88.7324 93.9134 89.8413 94.9214 90.6592 96.15L119.04 138.71L129.5008 123.03C130.3195 121.8025 131.4294 120.7967 132.7298 120.1012C134.0312 119.4057 135.485 119.0417 136.96 119.0428H163.84C166.2166 119.0428 168.4958 119.987 170.1758 121.667S172.8 125.6262 172.8 128.0028S171.8558 132.6586 170.1758 134.3386S166.2166 136.9628 163.84 136.9628H141.7536L126.4992 159.8556C125.6816 161.0842 124.5728 162.0922 123.2714 162.79C121.9699 163.4866 120.5162 163.8518 119.04 163.8518S116.1101 163.4866 114.8086 162.79C113.5072 162.0922 112.3984 161.0842 111.5808 159.8556L83.2 117.2732L72.7392 132.9532C71.9228 134.1852 70.8146 135.1954 69.5132 135.8943C68.2118 136.5943 66.7575 136.9617 65.28 136.9628ZM184 20.4828C160.872 20.4828 140.6224 30.4284 128 47.2396C115.3776 30.4284 95.128 20.4828 72 20.4828C53.5898 20.5035 35.9395 27.8262 22.9214 40.8442C9.9034 53.8623 2.5807 71.5126 2.56 89.9228V92.4428C2.6343 94.8194 3.6494 97.0684 5.3823 98.6969C7.1152 100.3242 9.4237 101.1967 11.8 101.1228C14.1763 101.0489 16.4258 100.033 18.0536 98.3004C19.6814 96.5678 20.5543 94.2594 20.48 91.8828V89.9228C20.4978 76.2643 25.9315 63.1704 35.5895 53.5123C45.2476 43.8543 58.3415 38.4206 72 38.4028C93.784 38.4028 112.0736 50.006 119.712 68.6428C120.3874 70.2862 121.5354 71.6918 123.0115 72.681C124.4866 73.6701 126.2237 74.1983 128 74.1983C129.7763 74.1983 131.5134 73.6702 132.9885 72.681C134.4646 71.6918 135.6126 70.2862 136.288 68.6428C143.9264 49.9724 162.216 38.4028 184 38.4028C197.6584 38.4206 210.7523 43.8543 220.4101 53.5123C230.069 63.1704 235.5021 76.2643 235.52 89.9228C235.52 149.966 148.4288 204.3308 128 216.2588C115.8704 209.1916 80.2544 187.1388 53.3184 157.7836C52.5226 156.9156 51.5638 156.2134 50.4967 155.7161C49.4294 155.2188 48.2747 154.9366 47.0985 154.8862C45.9223 154.8346 44.7474 155.0161 43.6412 155.4193C42.5349 155.8225 41.519 156.4396 40.6512 157.2348C39.7834 158.03 39.0809 158.9898 38.5837 160.0561C38.0864 161.1234 37.8043 162.2782 37.7533 163.4553C37.7024 164.6313 37.8836 165.8062 38.2867 166.9116C38.6897 168.0182 39.3066 169.034 40.1024 169.902C75.0128 207.982 121.784 233.3836 123.7552 234.4476C125.06 235.1498 126.5182 235.5172 128 235.5172S130.94 235.1498 132.2448 234.4476C137.1952 231.782 253.44 168.3228 253.44 89.9228C253.4187 71.5126 246.0962 53.8623 233.0784 40.8442C220.0606 27.8262 202.4106 20.5035 184 20.4828Z" stroke-width="1"></path></g></svg>