<svg xmlns="http://www.w3.org/2000/svg" fill="none" viewBox="0 0 256 256" id="Jar-Label-Duotone--Streamline-Phosphor.svg"><desc>Jar Label Duotone Streamline Icon: https://streamlinehq.com</desc><g id="jar-label-duotone"><path id="Vector" fill="#bc9a64" d="M217.6 101.12V190.72H38.4V101.12H217.6Z" stroke-width="1"></path><path id="Vector_2" fill="#000" d="M190.72 39.3072V20.48C190.72 15.7273 188.8317 11.1693 185.4717 7.8087C182.1106 4.448 177.5522 2.56 172.8 2.56H83.2C78.4473 2.56 73.8893 4.448 70.5287 7.8087C67.168 11.1693 65.28 15.7273 65.28 20.48V39.3072C55.1676 41.3821 46.0804 46.8814 39.5514 54.8776C33.0222 62.8736 29.451 72.877 29.44 83.2V208.64C29.44 220.5221 34.16 231.917 42.5616 240.3181C50.9633 248.7203 62.3583 253.44 74.24 253.44H181.76C193.6421 253.44 205.037 248.7203 213.4381 240.3181C221.8403 231.917 226.56 220.5221 226.56 208.64V83.2C226.5488 72.877 222.9782 62.8736 216.4486 54.8776C209.9202 46.8814 200.8325 41.3821 190.72 39.3072ZM47.36 110.08H208.64V181.76H47.36V110.08ZM172.8 38.4H154.88V20.48H172.8V38.4ZM119.04 38.4V20.48H136.96V38.4H119.04ZM101.12 20.48V38.4H83.2V20.48H101.12ZM74.24 56.32H181.76C188.8888 56.32 195.7264 59.152 200.7675 64.1929C205.8075 69.2339 208.64 76.071 208.64 83.2V92.16H47.36V83.2C47.36 76.071 50.192 69.2339 55.2329 64.1929C60.2739 59.152 67.111 56.32 74.24 56.32ZM181.76 235.52H74.24C67.111 235.52 60.2739 232.6875 55.2329 227.6475C50.192 222.6064 47.36 215.7688 47.36 208.64V199.68H208.64V208.64C208.64 215.7688 205.8075 222.6064 200.7675 227.6475C195.7264 232.6875 188.8888 235.52 181.76 235.52Z" stroke-width="1"></path></g></svg>