<svg xmlns="http://www.w3.org/2000/svg" fill="none" viewBox="0 0 256 256" id="Mailbox-Duotone--Streamline-Phosphor.svg"><desc>Mailbox Duotone Streamline Icon: https://streamlinehq.com</desc><g id="mailbox-duotone"><path id="Vector" fill="#bc9a64" d="M244.48 119.04V186.24C244.48 188.6166 243.5358 190.8958 241.8558 192.5758S237.8966 195.2 235.52 195.2H128V119.04C128 103.5941 121.8635 88.7802 110.9424 77.8581C100.0202 66.936 85.2063 60.8 69.76 60.8H186.24C201.6859 60.8 216.5002 66.936 227.4224 77.8581C238.3435 88.7802 244.48 103.5941 244.48 119.04Z" stroke-width="1"></path><path id="Vector_2" fill="#000" d="M101.12 159.36C101.12 161.7366 100.1758 164.0158 98.4958 165.6958S94.5363 168.32 92.16 168.32H47.36C44.9837 168.32 42.7046 167.3758 41.0243 165.6958C39.3441 164.0158 38.4 161.7366 38.4 159.36S39.3441 154.7042 41.0243 153.0242C42.7046 151.3442 44.9837 150.4 47.36 150.4H92.16C94.5363 150.4 96.8158 151.3442 98.4958 153.0242S101.12 156.9834 101.12 159.36ZM253.44 119.04V186.24C253.44 190.9922 251.5517 195.5506 248.1917 198.9117C244.8306 202.2717 240.2722 204.16 235.52 204.16H136.96V240C136.96 242.3766 136.0158 244.6558 134.3358 246.3358S130.3766 248.96 128 248.96S123.3442 248.0158 121.6642 246.3358S119.04 242.3766 119.04 240V204.16H20.48C15.7273 204.16 11.1693 202.2717 7.8087 198.9117C4.448 195.5506 2.56 190.9922 2.56 186.24V119.04C2.5807 101.2242 9.6674 84.1433 22.2654 71.5454C34.8633 58.9474 51.9438 51.8607 69.76 51.84H154.88V16C154.88 13.6237 155.8242 11.3446 157.5042 9.6643C159.1842 7.9841 161.4634 7.04 163.84 7.04H199.68C202.0566 7.04 204.3358 7.9841 206.0158 9.6643C207.6958 11.3446 208.64 13.6237 208.64 16S207.6958 20.6554 206.0158 22.3357C204.3358 24.016 202.0566 24.96 199.68 24.96H172.8V51.84H186.24C204.0558 51.8607 221.137 58.9474 233.7347 71.5454C246.3325 84.1433 253.4187 101.2242 253.44 119.04ZM119.04 186.24V119.04C119.04 105.9696 113.8477 93.4356 104.6066 84.1938C95.3644 74.952 82.8298 69.76 69.76 69.76S44.1556 74.952 34.9138 84.1938S20.48 105.9696 20.48 119.04V186.24H119.04ZM235.52 119.04C235.5054 105.9752 230.3086 93.4488 221.0698 84.2101C211.8309 74.9716 199.3048 69.7748 186.24 69.76H172.8V150.4C172.8 152.7766 171.8558 155.0558 170.1758 156.7358S166.2166 159.36 163.84 159.36S159.1842 158.4158 157.5042 156.7358S154.88 152.7766 154.88 150.4V69.76H115.4C122.2018 76.0405 127.6282 83.6616 131.3387 92.143C135.0493 100.6244 136.9634 109.7821 136.96 119.04V186.24H235.52V119.04Z" stroke-width="1"></path></g></svg>