<svg xmlns="http://www.w3.org/2000/svg" fill="none" viewBox="0 0 256 256" id="Phone-Duotone--Streamline-Phosphor.svg"><desc>Phone Duotone Streamline Icon: https://streamlinehq.com</desc><g id="phone-duotone"><path id="Vector" fill="#bc9a64" d="M243.3314 190.8196C241.382 205.3833 234.2106 218.7452 223.1492 228.4167C212.0878 238.0895 197.8891 243.4157 183.195 243.4044C137.9497 243.4044 94.5559 225.43 62.5628 193.4375C30.5691 161.4438 12.5953 118.05 12.5953 72.8047C12.5841 58.1107 17.9099 43.9125 27.5825 32.851C37.2551 21.7894 50.6158 14.6172 65.1801 12.6683C67.3331 12.4125 69.5111 12.861 71.3879 13.9463C73.2648 15.0317 74.7396 16.6958 75.5917 18.6895L102.0974 77.8976C102.7484 79.4183 103.0144 81.0764 102.8689 82.7245C102.7246 84.3724 102.1752 85.9591 101.2695 87.3433L74.4628 119.2179C73.5119 120.6529 72.9496 122.31 72.8309 124.0273C72.7121 125.7446 73.041 127.4631 73.7854 129.0148C84.1593 150.252 106.1115 171.9407 127.4114 182.2143C128.9719 182.9557 130.6979 183.2768 132.4203 183.1476C134.1426 183.0172 135.8021 182.4414 137.2334 181.4742L168.5937 154.7553C169.9836 153.8308 171.5817 153.2676 173.245 153.1158C174.9071 152.9653 176.5805 153.2312 178.1146 153.8898L237.2726 180.3954C239.2759 181.2422 240.9493 182.7161 242.0419 184.5965C243.1345 186.4756 243.5873 188.6608 243.3314 190.8196Z" stroke-width="1"></path><path id="Vector_2" fill="#000" d="M241.362 171.2257L182.2667 144.7451L182.1037 144.6698C179.0354 143.3577 175.6899 142.8309 172.3669 143.1382C169.044 143.4443 165.8503 144.5745 163.0743 146.426C162.7481 146.6418 162.4333 146.8764 162.1334 147.1285L131.6011 173.1575C112.2581 163.762 92.2879 143.9423 82.8925 124.8502L108.959 93.8536C109.2099 93.54 109.4482 93.2264 109.674 92.8877C111.4854 90.1193 112.5855 86.9458 112.874 83.65C113.1625 80.354 112.6319 77.0377 111.3298 73.9963V73.8457L84.7741 14.6502C83.0523 10.6771 80.0917 7.3673 76.3343 5.215C72.5769 3.0627 68.2241 2.1833 63.9258 2.7082C46.9282 4.9449 31.326 13.2925 20.0332 26.192C8.7405 39.0914 2.5294 55.6604 2.5601 72.8046C2.5601 172.4048 83.595 253.4397 183.195 253.4397C200.339 253.4698 216.9085 247.2592 229.8076 235.967C242.7067 224.6736 251.0548 209.0712 253.2914 192.074C253.817 187.7776 252.9402 183.4248 250.7901 179.6679C248.64 175.9109 245.3334 172.9493 241.362 171.2257ZM183.195 233.3692C140.6253 233.3227 99.8119 216.3907 69.7102 186.2899C39.6086 156.1878 22.6771 115.3744 22.6307 72.8046C22.5835 60.5551 26.9966 48.7074 35.0461 39.4738C43.0954 30.2402 54.2305 24.2523 66.3719 22.6282C66.367 22.6782 66.367 22.7287 66.3719 22.7787L92.7144 81.736L66.7859 112.7702C66.5227 113.0725 66.2836 113.3962 66.0709 113.7361C64.1831 116.6325 63.0757 119.968 62.8559 123.4189C62.6362 126.8685 63.3115 130.3169 64.8165 133.4303C76.1814 156.6745 99.6011 179.9188 123.0962 191.2712C126.2322 192.7614 129.7007 193.4137 133.1641 193.1628C136.6263 192.9132 139.9655 191.7679 142.8532 189.8411C143.1755 189.6241 143.4854 189.3895 143.7814 189.1387L174.2761 163.1222L233.2334 189.5275H233.3714C231.767 201.6865 225.7885 212.8432 216.5535 220.9129C207.3173 228.9825 195.4594 233.4105 183.195 233.3692Z" stroke-width="1"></path></g></svg>