<svg xmlns="http://www.w3.org/2000/svg" fill="none" viewBox="0 0 256 256" id="Pill-Duotone--Streamline-Phosphor.svg"><desc>Pill Duotone Streamline Icon: https://streamlinehq.com</desc><g id="pill-duotone"><path id="Vector" fill="#bc9a64" d="M166.3975 166.9691L105.0462 228.3204C94.7851 238.579 80.8707 244.3418 66.3617 244.3418S37.9377 238.579 27.6771 228.3204C17.4188 218.0593 11.656 204.1449 11.656 189.6358C11.656 175.1267 17.4188 161.2123 27.6771 150.9513L89.0284 89.6L166.3975 166.9691Z" stroke-width="1"></path><path id="Vector_2" fill="#000" d="M234.6153 21.4186C222.5384 9.3436 206.1604 2.56 189.0824 2.56C172.0043 2.56 155.6263 9.3436 143.5494 21.4186L20.8469 144.1089C9.025 156.2353 2.4566 172.5312 2.5648 189.4654C2.6729 206.4007 9.4488 222.6108 21.4246 234.5848C33.4004 246.5589 49.6116 253.3335 66.5465 253.4387C83.4814 253.5451 99.7767 246.9748 111.9006 235.1506L234.6153 112.4601C246.6679 100.3773 253.4365 84.0064 253.4365 66.9394C253.4365 49.8724 246.6679 33.5021 234.6153 21.4186ZM98.2281 221.478C89.7814 229.927 78.3246 234.6731 66.378 234.6743C54.4315 234.6755 42.9738 229.9306 34.5255 221.4841C26.0772 213.0376 21.3303 201.5809 21.3292 189.6346C21.3281 177.6871 26.0728 166.2305 34.5194 157.7815L89.0284 103.2726L152.737 166.9691L98.2281 221.478ZM220.9306 98.7876L166.3975 153.2965L102.713 89.6001L157.2341 35.0912C165.7145 26.8069 177.1179 22.1998 188.9735 22.269C200.8279 22.3383 212.1782 27.0784 220.5607 35.4611C228.9431 43.8439 233.6832 55.1936 233.7533 67.0483C233.8222 78.9032 229.2151 90.3076 220.9306 98.7876ZM202.2774 73.0866C203.1768 73.9849 203.8901 75.0515 204.376 76.2255C204.8632 77.3996 205.1135 78.6581 205.1135 79.929S204.8632 82.4583 204.376 83.6324C203.8901 84.8065 203.1768 85.8731 202.2774 86.7713L173.264 115.7846C172.3658 116.6828 171.2983 117.3948 170.1257 117.8796C168.9519 118.3656 167.6934 118.6146 166.4229 118.6146C165.1535 118.6146 163.8951 118.3632 162.7225 117.8772C161.5486 117.39 160.4836 116.6768 159.5854 115.7786C158.6872 114.8803 157.9751 113.8141 157.4904 112.6403C157.0044 111.4664 156.7554 110.208 156.7554 108.9386C156.7566 107.6681 157.0068 106.4109 157.4928 105.237C157.98 104.0632 158.6932 102.9981 159.5914 102.0999L188.6048 73.0866C190.4182 71.2743 192.877 70.2563 195.4411 70.2563C198.0052 70.2563 200.4641 71.2743 202.2774 73.0866Z" stroke-width="1"></path></g></svg>