<svg xmlns="http://www.w3.org/2000/svg" fill="none" viewBox="0 0 256 256" id="Seal-Percent-Duotone--Streamline-Phosphor.svg"><desc>Seal Percent Duotone Streamline Icon: https://streamlinehq.com</desc><g id="seal-percent-duotone"><path id="Vector" fill="#bc9a64" d="M244.48 128C244.48 142.0112 224.5216 152.584 219.0784 165.7328C213.8368 178.4112 220.6688 200.0608 210.3648 210.3648C200.0608 220.6688 178.4112 213.8368 165.7328 219.0784C152.64 224.5216 142 244.48 128 244.48C114 244.48 103.36 224.5216 90.2672 219.0784C77.5888 213.8368 55.9504 220.6688 45.6352 210.3648S42.1632 178.4112 36.9216 165.7328C31.4784 152.64 11.52 142 11.52 128C11.52 114 31.4784 103.36 36.9216 90.2672C42.1632 77.6 35.3312 55.9392 45.6352 45.6352C55.9392 35.3312 77.6 42.1632 90.2672 36.9216C103.416 31.4784 114 11.52 128 11.52C142 11.52 152.64 31.4784 165.7328 36.9216C178.4112 42.1632 200.0496 35.3312 210.3648 45.6352S213.8368 77.5888 219.0784 90.2672C224.5216 103.416 244.48 114 244.48 128Z" stroke-width="1"></path><path id="Vector_2" fill="#000" d="M237.6032 99.7984C233.3808 95.3856 229.0128 90.8384 227.3664 86.84C225.8432 83.1776 225.7536 77.1072 225.664 71.2272C225.496 60.296 225.3168 47.9088 216.704 39.296C208.0912 30.6832 195.704 30.504 184.7728 30.336C178.8928 30.2464 172.8224 30.1568 169.16 28.6336C165.1728 26.9872 160.6144 22.6192 156.2016 18.3968C148.4736 10.9712 139.6928 2.56 128 2.56S107.5376 10.9712 99.7984 18.3968C95.3856 22.6192 90.8384 26.9872 86.84 28.6336C83.2 30.1568 77.1072 30.2464 71.2272 30.336C60.296 30.504 47.9088 30.6832 39.296 39.296C30.6832 47.9088 30.56 60.296 30.336 71.2272C30.2464 77.1072 30.1568 83.1776 28.6336 86.84C26.9872 90.8272 22.6192 95.3856 18.3968 99.7984C10.9712 107.5376 2.56 116.3072 2.56 128S10.9712 148.4624 18.3968 156.2016C22.6192 160.6144 26.9872 165.1616 28.6336 169.16C30.1568 172.8224 30.2464 178.8928 30.336 184.7728C30.504 195.704 30.6832 208.0912 39.296 216.704C47.9088 225.3168 60.296 225.496 71.2272 225.664C77.1072 225.7536 83.1776 225.8432 86.84 227.3664C90.8272 229.0128 95.3856 233.3808 99.7984 237.6032C107.5264 245.0288 116.3072 253.44 128 253.44S148.4624 245.0288 156.2016 237.6032C160.6144 233.3808 165.1616 229.0128 169.16 227.3664C172.8224 225.8432 178.8928 225.7536 184.7728 225.664C195.704 225.496 208.0912 225.3168 216.704 216.704C225.3168 208.0912 225.496 195.704 225.664 184.7728C225.7536 178.8928 225.8432 172.8224 227.3664 169.16C229.0128 165.1728 233.3808 160.6144 237.6032 156.2016C245.0288 148.4624 253.44 139.6928 253.44 128S245.0288 107.5376 237.6032 99.7984ZM224.6672 143.8032C219.3024 149.4032 213.7472 155.1936 210.8016 162.3056C207.9792 169.1376 207.856 176.944 207.744 184.504C207.632 192.344 207.5088 200.5536 204.0256 204.0256C200.5424 207.4976 192.3888 207.632 184.504 207.744C176.944 207.856 169.1376 207.9792 162.3056 210.8016C155.1936 213.7472 149.4032 219.3024 143.8032 224.6672C138.2032 230.032 132.48 235.52 128 235.52S117.752 230.0096 112.1968 224.6672C106.6416 219.3248 100.8064 213.7472 93.6944 210.8016C86.8624 207.9792 79.056 207.856 71.496 207.744C63.656 207.632 55.4464 207.5088 51.9744 204.0256C48.5024 200.5424 48.368 192.3888 48.256 184.504C48.144 176.944 48.0208 169.1376 45.1984 162.3056C42.2528 155.1936 36.6976 149.4032 31.3328 143.8032C25.968 138.2032 20.48 132.48 20.48 128S25.9904 117.7632 31.3328 112.1968C36.6752 106.6304 42.2528 100.8064 45.1984 93.6944C48.0208 86.8624 48.144 79.056 48.256 71.496C48.368 63.656 48.4912 55.4464 51.9744 51.9744C55.4576 48.5024 63.6112 48.368 71.496 48.256C79.056 48.144 86.8624 48.0208 93.6944 45.1984C100.8064 42.2528 106.5968 36.6976 112.1968 31.3328C117.7968 25.968 123.52 20.48 128 20.48S138.248 25.9904 143.8032 31.3328C149.3584 36.6752 155.1936 42.2528 162.3056 45.1984C169.1376 48.0208 176.944 48.144 184.504 48.256C192.344 48.368 200.5536 48.4912 204.0256 51.9744C207.4976 55.4576 207.632 63.6112 207.744 71.496C207.856 79.056 207.9792 86.8624 210.8016 93.6944C213.7472 100.8064 219.3024 106.5968 224.6672 112.1968C230.032 117.7968 235.52 123.52 235.52 128S230.0096 138.2368 224.6672 143.8032ZM119.04 92.16C119.04 86.8436 117.463 81.6467 114.5096 77.2263C111.5562 72.8058 107.3584 69.3606 102.4461 67.3261C97.5349 65.2917 92.1302 64.7593 86.9159 65.7966C81.7018 66.8337 76.9122 69.3938 73.1529 73.1529C69.3938 76.9122 66.8337 81.7018 65.7966 86.9159C64.7593 92.1302 65.2917 97.5349 67.3261 102.4461C69.3606 107.3584 72.8058 111.5562 77.2263 114.5096C81.6467 117.463 86.8436 119.04 92.16 119.04C99.2888 119.04 106.1264 116.2075 111.1675 111.1675C116.2075 106.1264 119.04 99.2888 119.04 92.16ZM83.2 92.16C83.2 90.3878 83.7255 88.6555 84.71 87.1821C85.6946 85.7086 87.0939 84.5602 88.7311 83.8821C90.3683 83.2039 92.17 83.0264 93.908 83.3721C95.6461 83.7179 97.2426 84.5712 98.4958 85.8243C99.7491 87.0774 100.6026 88.6739 100.9475 90.412C101.2936 92.15 101.1166 93.9517 100.4379 95.5889C99.7603 97.2258 98.6112 98.6258 97.1384 99.6102C95.6645 100.5947 93.9322 101.12 92.16 101.12C89.7837 101.12 87.5046 100.1758 85.8243 98.4958C84.1441 96.8158 83.2 94.5363 83.2 92.16ZM163.84 136.96C158.5234 136.96 153.3266 138.537 148.9059 141.4904C144.4864 144.4438 141.0402 148.6416 139.0062 153.5539C136.9712 158.4651 136.4392 163.8702 137.4763 169.0838C138.5134 174.2986 141.0738 179.0877 144.8325 182.8475C148.5923 186.6062 153.3814 189.1666 158.5962 190.2037C163.8098 191.2408 169.2149 190.7088 174.1261 188.6738C179.0384 186.6398 183.2362 183.1936 186.1896 178.7741C189.143 174.3534 190.72 169.1566 190.72 163.84C190.72 156.7112 187.8875 149.8736 182.8475 144.8325C177.8064 139.7925 170.9688 136.96 163.84 136.96ZM163.84 172.8C162.0682 172.8 160.3355 172.2747 158.8616 171.2902C157.3888 170.3058 156.2397 168.9058 155.5621 167.2683C154.8834 165.632 154.7064 163.8299 155.0525 162.0917C155.3974 160.3534 156.2509 158.7574 157.5042 157.5042C158.7574 156.2509 160.3534 155.3974 162.0917 155.0525C163.8299 154.7064 165.632 154.8834 167.2683 155.5621C168.9058 156.2397 170.3058 157.3888 171.2902 158.8616C172.2747 160.3355 172.8 162.0682 172.8 163.84C172.8 166.2166 171.8558 168.4958 170.1758 170.1758S166.2166 172.8 163.84 172.8ZM179.1392 89.5392L89.5392 179.1392C88.7067 179.9714 87.7184 180.6322 86.6308 181.0824C85.543 181.5326 84.3773 181.7645 83.2 181.7645C82.0227 181.7645 80.857 181.5326 79.7692 181.0824C78.6816 180.6322 77.6933 179.9714 76.8608 179.1392C76.0283 178.307 75.368 177.3181 74.9175 176.2306C74.4669 175.143 74.2351 173.9771 74.2351 172.8C74.2351 171.6229 74.4669 170.457 74.9175 169.3694C75.368 168.2819 76.0283 167.293 76.8608 166.4608L166.4608 76.8608C167.293 76.0283 168.2819 75.3679 169.3694 74.9175C170.457 74.4669 171.6229 74.2351 172.8 74.2351C173.9771 74.2351 175.143 74.4669 176.2306 74.9175C177.3181 75.3679 178.307 76.0283 179.1392 76.8608C179.9714 77.6933 180.6322 78.6816 181.0824 79.7692C181.5326 80.857 181.7645 82.0227 181.7645 83.2C181.7645 84.3773 181.5326 85.543 181.0824 86.6308C180.6322 87.7184 179.9714 88.7067 179.1392 89.5392Z" stroke-width="1"></path></g></svg>