<svg xmlns="http://www.w3.org/2000/svg" fill="none" viewBox="0 0 256 256" id="Syringe-Duotone--Streamline-Phosphor.svg"><desc>Syringe Duotone Streamline Icon: https://streamlinehq.com</desc><g id="syringe-duotone"><path id="Vector" fill="#bc9a64" d="M204.1565 114.5602L103.7415 214.9752C102.0627 216.6518 99.7869 217.5948 97.4137 217.5959H38.4034V158.5856C38.4045 156.2124 39.347 153.9367 41.0241 152.2579L141.4391 51.8429L204.1565 114.5602Z" stroke-width="1"></path><path id="Vector_2" fill="#000" d="M250.8137 58.9434L197.056 5.1857C196.2238 4.3533 195.2349 3.6929 194.1474 3.2424C193.06 2.7918 191.8941 2.56 190.717 2.56C189.54 2.56 188.3741 2.7918 187.2866 3.2424C186.1991 3.6929 185.2102 4.3533 184.3781 5.1857C183.546 6.0181 182.8852 7.0063 182.435 8.094C181.9847 9.1816 181.7529 10.3474 181.7529 11.5247C181.7529 12.7018 181.9847 13.8676 182.435 14.9552C182.8852 16.0429 183.546 17.0311 184.3781 17.8636L204.9292 38.4035L172.7978 70.535L134.3386 32.0646C132.6575 30.3833 130.3773 29.4389 127.9997 29.4389S123.3418 30.3833 121.6607 32.0646C119.9797 33.7458 119.0356 36.0259 119.0356 38.4035C119.0356 40.7811 119.9797 43.0612 121.6607 44.7425L128.7724 51.843L34.6965 145.9189C33.0252 147.5764 31.7003 149.5509 30.7985 151.7247C29.8968 153.8997 29.4363 156.2314 29.4439 158.5856V213.8889L5.1857 238.1358C4.3533 238.968 3.6929 239.9569 3.2424 241.0444C2.7918 242.1318 2.56 243.2977 2.56 244.4748C2.56 245.6518 2.7918 246.8177 3.2424 247.9052C3.6929 248.9927 4.3533 249.9816 5.1857 250.8137C6.8669 252.4948 9.147 253.44 11.5247 253.44C12.7018 253.44 13.8676 253.2071 14.9552 252.7568C16.0429 252.3066 17.0311 251.6458 17.8636 250.8137L42.1106 226.5555H97.4137C99.7679 226.5634 102.0996 226.1031 104.2746 225.2004C106.4484 224.2988 108.4229 222.9739 110.0804 221.303L204.1565 127.2269L211.257 134.3386C212.0891 135.1707 213.078 135.8315 214.1655 136.2817C215.253 136.7319 216.4188 136.9649 217.5959 136.9649C218.773 136.9649 219.9388 136.7319 221.0263 136.2817C222.1138 135.8315 223.1027 135.1707 223.9348 134.3386C224.767 133.5065 225.4277 132.5176 225.878 131.4301C226.3282 130.3426 226.5611 129.1767 226.5611 127.9997C226.5611 126.8226 226.3282 125.6567 225.878 124.5692C225.4277 123.4818 224.767 122.4929 223.9348 121.6607L185.4645 83.2017L217.5959 51.0702L238.1358 71.6213C239.8169 73.3025 242.0971 74.247 244.4748 74.247S249.1327 73.3025 250.8137 71.6213C252.4948 69.9401 253.44 67.66 253.44 65.2824C253.44 62.9048 252.4948 60.6246 250.8137 58.9434ZM97.4137 208.6363H47.3632V158.5856L67.5223 138.4264L90.302 161.2175C91.1345 162.0496 92.1228 162.7104 93.2105 163.1606C94.298 163.6108 95.4638 163.8438 96.641 163.8438C97.8181 163.8438 98.9839 163.6108 100.0714 163.1606C101.1589 162.7104 102.1478 162.0496 102.9799 161.2175C103.8121 160.3853 104.4728 159.3964 104.923 158.3089C105.3733 157.2215 105.6062 156.0556 105.6062 154.8785C105.6062 153.7015 105.3733 152.5356 104.923 151.4481C104.4728 150.3606 103.8121 149.3717 102.9799 148.5396L80.189 125.7598L94.4012 111.5476L117.1809 134.3386C118.862 136.0196 121.1422 136.9649 123.5198 136.9649S128.1777 136.0196 129.8588 134.3386C131.5398 132.6575 132.4851 130.3773 132.4851 127.9997S131.5398 123.3418 129.8588 121.6607L107.0677 98.8809L141.4391 64.5096L191.4898 114.5602L97.4137 208.6363Z" stroke-width="1"></path></g></svg>